<svg width="360" height="760" viewBox="0 0 360 760" fill="none" xmlns="http://www.w3.org/2000/svg">
<rect width="360" height="760" fill="#2E2E2E"/>
<path d="M0 0H360V760H0V0Z" fill="url(#paint0_linear_309_8803)"/>
<path fill-rule="evenodd" clip-rule="evenodd" d="M180 460C224.183 460 260 424.183 260 380C260 335.817 224.183 300 180 300C135.817 300 100 335.817 100 380C100 424.183 135.817 460 180 460ZM191.25 341.811V355.547V400.823C191.25 402.101 190.639 403.302 189.607 404.055L168.985 419.091C168.047 419.755 166.75 419.084 166.75 417.934V410.297V358.854C166.75 357.576 167.361 356.375 168.393 355.622L188.958 340.627C189.919 339.945 191.25 340.632 191.25 341.811ZM200.893 409.795C199.861 409.042 199.25 407.841 199.25 406.563V347.842C199.25 346.534 200.735 345.778 201.793 346.549L218.357 358.627C219.389 359.38 220 360.581 220 361.859V415.859C220 417.365 219.155 418.743 217.813 419.425C216.471 420.107 214.86 419.978 213.643 419.091L200.893 409.795ZM157.24 349.28L146.49 340.729C145.288 339.773 143.645 339.589 142.262 340.257C140.879 340.924 140 342.324 140 343.859V397.859C140 399.078 140.556 400.231 141.51 400.99L156.154 412.638C157.202 413.472 158.75 412.726 158.75 411.386V352.411C158.75 351.192 158.194 350.039 157.24 349.28Z" fill="white"/>
<defs>
<linearGradient id="paint0_linear_309_8803" x1="579" y1="1162" x2="-220.44" y2="1229.66" gradientUnits="userSpaceOnUse">
<stop stop-color="#4CAF50"/>
<stop offset="1" stop-color="#FCDD3D"/>
</linearGradient>
</defs>
</svg>
